<?xml version="1.0" encoding="utf-8"?>
<!-- Generator: Adobe Illustrator 22.1.0, SVG Export Plug-In . SVG Version: 6.00 Build 0)  -->
<svg version="1.1" id="Layer_1" xmlns="http://www.w3.org/2000/svg" xmlns:xlink="http://www.w3.org/1999/xlink" x="0px" y="0px"
	 viewBox="0 0 482.1 61.3" style="enable-background:new 0 0 482.1 61.3;" xml:space="preserve">
<style type="text/css">
	.st0{fill:#FFFFFF;}
</style>
<g id="Page-1">
	<g id="Business-Card" transform="translate(-327.000000, -73.000000)">
		<path class="st0" d="M358.7,79.8h9.3v31.3c0,8.6-4.7,12.9-13.7,12.9c-7.5,0-12.9-3-13.2-12.3l8.9-1.3c0.4,3.6,0.8,6.1,4.4,6.1
			c2.8,0,4.3-1.3,4.3-5.1L358.7,79.8L358.7,79.8z"/>
		<path class="st0" d="M398.7,79.8l15.4,43.4H404l-3.6-10.6h-14.5l-3.4,10.6H373l14.2-43.4H398.7z M393,88.5h-0.2l-5.3,16.8h11
			L393,88.5z"/>
		<path class="st0" d="M426.1,123.3L412,79.8h10.4l9.9,34.3h0.4l9.9-34.3h9.5l-13.5,43.4L426.1,123.3L426.1,123.3z"/>
		<path class="st0" d="M468.6,123.3h-9.2V79.8h9.2V123.3z"/>
		<path class="st0" d="M489.7,115.5H509v7.8h-28.6V79.8H508v7.7h-18.3v10.2h17.2v7.6h-17.2V115.5z"/>
		<path class="st0" d="M550.4,123.3h-10l-8.6-16.5h-5.9v16.5h-9.2V79.8h16.9c10.8,0,14.4,5.8,14.4,12.2c0,6.4-3.1,10.4-7.5,12.4
			L550.4,123.3z M530.6,99.5c4.3,0,7.9-1.6,7.9-6.5c0-4.1-2.6-5.7-7.5-5.7h-5.1v12.2H530.6z"/>
		<path class="st0" d="M601.5,118.9c-1.9,3.9-7.1,6.1-12.4,6.1c-13.1,0-18.4-9.1-18.4-21.7c0-14,7.2-23.2,21.1-23.2
			c9.5,0,16.4,4.3,17.2,15.2l-8.6,0.8c-0.5-4.6-2.5-8.4-8.7-8.4c-7.6,0-11.3,5.5-11.3,14.8c0,10.3,3.4,15.1,11,15.1
			c5.8,0,8.9-3.4,8.9-7.6v-1.6h-7.9v-6.8h17v22.6h-6.7L601.5,118.9z"/>
		<path class="st0" d="M640.2,80.8l15.4,43.4h-10.1l-3.6-10.6h-14.5l-3.4,10.6h-9.5l14.2-43.4L640.2,80.8L640.2,80.8z M634.5,89.5
			h-0.2l-5.3,16.8h11L634.5,89.5z"/>
		<path class="st0" d="M694.7,124.3h-10l-8.6-16.5h-5.9v16.5H661V80.9h17c10.8,0,14.4,5.8,14.4,12.2s-3.1,10.4-7.5,12.4L694.7,124.3
			z M675,100.5c4.3,0,7.9-1.6,7.9-6.5c0-4.1-2.6-5.7-7.5-5.7h-5.1v12.2H675z"/>
		<path class="st0" d="M697.8,103c0-13.8,7.3-23,20.9-23c9.7,0,16.6,4.7,17.1,15.6l-8.5,0.7c-0.5-6.2-3.2-8.7-8.8-8.7
			c-7.1,0-11.3,4.6-11.3,14.9c0,10.7,3.8,14.8,10.6,14.8c6.2,0,8.4-3.2,9.4-7.8l8.3,1.4c-1.4,10.4-10.1,14-17.9,14
			C703.4,125,697.8,116.5,697.8,103z"/>
		<path class="st0" d="M751.9,124.3h-9.2V80.9h9.2V124.3z"/>
		<path class="st0" d="M783.7,80.8l15.4,43.4H789l-3.6-10.6h-14.5l-3.4,10.6H758l14.2-43.4L783.7,80.8L783.7,80.8z M778,89.5h-0.2
			l-5.3,16.8h11L778,89.5z"/>
	</g>
</g>
</svg>
